<svg
  width="128"
  height="128"
  viewBox="0 0 128 128"
  fill="none"
  xmlns="http://www.w3.org/2000/svg"
>
  <g stroke="currentColor" stroke-width="4" stroke-linecap="round" stroke-linejoin="round">
    <!-- Top knot -->
    <path d="M61 28L64 20L67 28" />

    <!-- Main brim -->
    <path d="M25 75C25 39 47 22 64 22C81 22 103 39 108 74" />

    <!-- Brim edge -->
    <path d="M26 76C38 84 50 88 64 88C78 88 90 84 108 74" />



    <!-- Crown base band -->
    <path d="M39 60C47 65 56 68 64 68C80 68 81 65 89 60" />

<!--    &lt;!&ndash; Weave details &ndash;&gt;-->
<!--    <path d="M30 66L45 92" />-->
<!--    <path d="M44 58L58 98" />-->
<!--    <path d="M64 54V102" />-->
<!--    <path d="M84 58L70 98" />-->
<!--    <path d="M98 66L83 92" />-->

    <!-- Inner brim texture -->
<!--    <path d="M24 74C38 84 50 88 64 88C78 88 90 84 104 74" />-->
  </g>
</svg>